<svg xmlns="http://www.w3.org/2000/svg" xmlns:xlink="http://www.w3.org/1999/xlink" width="200" zoomAndPan="magnify" viewBox="0 0 150 149.999998" height="200" preserveAspectRatio="xMidYMid meet" version="1.0"><defs><g/><clipPath id="99cda58c4b"><path d="M 25.800781 61 L 74 61 L 74 78.582031 L 25.800781 78.582031 Z M 25.800781 61 " clip-rule="nonzero"/></clipPath><clipPath id="55b8f257dd"><path d="M 86 36.582031 L 100.800781 36.582031 L 100.800781 55 L 86 55 Z M 86 36.582031 " clip-rule="nonzero"/></clipPath></defs><path fill="#000000" d="M 75 0 C 33.578125 0 0 33.578125 0 75 C 0 116.421875 33.578125 150 75 150 C 116.421875 150 150 116.421875 150 75 C 150 33.578125 116.421875 0 75 0 " fill-opacity="1" fill-rule="nonzero"/><g clip-path="url(#99cda58c4b)"><path fill="#ffffff" d="M 57.640625 61 L 32.355469 61 C 28.839844 61 27.070312 63.246094 26.328125 64.566406 C 26.300781 64.617188 25.945312 67.164062 25.894531 68.1875 C 25.796875 70.105469 27.445312 71.675781 29.371094 71.691406 L 36.441406 71.691406 C 36.546875 72.175781 36.691406 72.644531 36.878906 73.105469 C 37.0625 73.566406 37.285156 74.007812 37.546875 74.425781 C 37.808594 74.847656 38.101562 75.246094 38.429688 75.617188 C 38.761719 75.988281 39.117188 76.332031 39.503906 76.640625 C 39.890625 76.953125 40.300781 77.230469 40.734375 77.472656 C 41.167969 77.714844 41.617188 77.917969 42.085938 78.082031 C 42.554688 78.246094 43.035156 78.371094 43.523438 78.457031 C 44.011719 78.539062 44.507812 78.582031 45.003906 78.582031 C 45.5 78.585938 45.992188 78.542969 46.484375 78.460938 C 46.972656 78.378906 47.453125 78.253906 47.921875 78.089844 C 48.390625 77.925781 48.839844 77.722656 49.273438 77.480469 C 49.707031 77.242188 50.121094 76.964844 50.507812 76.65625 C 50.894531 76.34375 51.253906 76.003906 51.582031 75.632812 C 51.910156 75.261719 52.207031 74.867188 52.46875 74.445312 C 52.730469 74.023438 52.953125 73.582031 53.140625 73.125 C 53.328125 72.664062 53.476562 72.195312 53.582031 71.710938 L 73.21875 71.730469 C 71.257812 65.042969 65.207031 61 57.640625 61 Z M 57.640625 61 " fill-opacity="1" fill-rule="nonzero"/></g><path fill="#d62525" d="M 74.960938 37.535156 L 71.519531 37.535156 C 65.808594 37.535156 58.636719 44.859375 55.222656 47.03125 C 51.910156 47.988281 43.328125 47.464844 36.089844 49.828125 C 31.121094 51.429688 28.542969 55.761719 27.21875 60.152344 C 28.769531 59.105469 30.480469 58.597656 32.355469 58.625 L 57.5625 58.625 C 68.164062 58.289062 74.886719 50.0625 74.960938 37.535156 Z M 74.960938 37.535156 " fill-opacity="1" fill-rule="nonzero"/><path fill="#d62525" d="M 78.464844 71.894531 C 78.128906 70.578125 77.632812 69.324219 76.976562 68.132812 C 76.320312 66.945312 75.527344 65.851562 74.59375 64.863281 C 73.660156 63.875 72.621094 63.015625 71.46875 62.289062 C 70.316406 61.566406 69.09375 60.992188 67.800781 60.578125 L 64.691406 59.570312 L 67.785156 58.515625 C 69.074219 58.078125 70.289062 57.488281 71.425781 56.746094 C 72.566406 56.003906 73.59375 55.128906 74.511719 54.125 C 75.429688 53.121094 76.207031 52.019531 76.84375 50.820312 C 77.480469 49.621094 77.957031 48.359375 78.273438 47.039062 L 79.707031 41.136719 L 81.230469 47.015625 C 81.566406 48.332031 82.0625 49.585938 82.71875 50.773438 C 83.371094 51.964844 84.167969 53.054688 85.097656 54.046875 C 86.03125 55.035156 87.074219 55.890625 88.222656 56.617188 C 89.375 57.34375 90.597656 57.914062 91.890625 58.332031 L 95 59.339844 L 91.90625 60.394531 C 90.617188 60.832031 89.402344 61.421875 88.261719 62.164062 C 87.125 62.90625 86.09375 63.78125 85.179688 64.785156 C 84.261719 65.789062 83.484375 66.890625 82.847656 68.089844 C 82.210938 69.289062 81.730469 70.550781 81.414062 71.871094 L 79.984375 77.773438 Z M 78.464844 71.894531 " fill-opacity="1" fill-rule="nonzero"/><path fill="#d62525" d="M 93.886719 74.433594 C 93.664062 73.570312 93.246094 72.808594 92.632812 72.160156 C 92.019531 71.507812 91.285156 71.046875 90.433594 70.773438 L 89.429688 70.445312 L 90.429688 70.101562 C 91.277344 69.816406 92.003906 69.34375 92.609375 68.683594 C 93.210938 68.023438 93.617188 67.257812 93.828125 66.390625 L 94.289062 64.480469 L 94.78125 66.382812 C 95 67.246094 95.417969 68.007812 96.035156 68.65625 C 96.648438 69.308594 97.378906 69.769531 98.234375 70.042969 L 99.238281 70.371094 L 98.238281 70.714844 C 97.390625 71 96.664062 71.472656 96.058594 72.132812 C 95.457031 72.792969 95.050781 73.558594 94.84375 74.425781 L 94.378906 76.335938 Z M 93.886719 74.433594 " fill-opacity="1" fill-rule="nonzero"/><g clip-path="url(#55b8f257dd)"><path fill="#d62525" d="M 92.75 51.570312 C 92.585938 50.929688 92.34375 50.320312 92.027344 49.738281 C 91.707031 49.160156 91.320312 48.628906 90.867188 48.144531 C 90.410156 47.664062 89.902344 47.246094 89.34375 46.890625 C 88.78125 46.539062 88.1875 46.261719 87.554688 46.058594 L 86.039062 45.5625 L 87.546875 45.050781 C 88.175781 44.835938 88.769531 44.550781 89.324219 44.1875 C 89.878906 43.824219 90.378906 43.398438 90.824219 42.910156 C 91.273438 42.421875 91.652344 41.886719 91.960938 41.300781 C 92.273438 40.714844 92.503906 40.101562 92.660156 39.457031 L 93.355469 36.585938 L 94.097656 39.449219 C 94.261719 40.089844 94.503906 40.699219 94.820312 41.28125 C 95.140625 41.859375 95.527344 42.390625 95.984375 42.875 C 96.4375 43.355469 96.945312 43.773438 97.503906 44.128906 C 98.066406 44.480469 98.660156 44.761719 99.292969 44.964844 L 100.800781 45.453125 L 99.289062 45.96875 C 98.664062 46.179688 98.070312 46.46875 97.515625 46.828125 C 96.960938 47.191406 96.460938 47.617188 96.011719 48.105469 C 95.566406 48.597656 95.1875 49.132812 94.875 49.71875 C 94.566406 50.304688 94.332031 50.917969 94.179688 51.5625 L 93.480469 54.4375 Z M 92.75 51.570312 " fill-opacity="1" fill-rule="nonzero"/></g><g fill="#ffffff" fill-opacity="1"><g transform="translate(48.881253, 98.476563)"><g><path d="M 17.390625 -12.328125 L 24.65625 -0.875 L 24.5625 0 L 17.796875 0 L 11.65625 -9.859375 L 10.015625 -9.859375 L 8.3125 0 L 1.953125 0 L 6.296875 -24.71875 L 12.640625 -24.71875 L 10.890625 -14.859375 L 12.53125 -14.859375 L 22.140625 -24.71875 L 28.890625 -24.71875 L 28.734375 -23.84375 Z M 17.390625 -12.328125 "/></g></g></g><g fill="#d62525" fill-opacity="1"><g transform="translate(74.104689, 98.476563)"><g><path d="M 15.734375 -15.265625 C 16.796875 -15.066406 17.851562 -14.8125 18.90625 -14.5 C 19.957031 -14.1875 20.882812 -13.738281 21.6875 -13.15625 C 22.5 -12.570312 23.101562 -11.820312 23.5 -10.90625 C 23.894531 -10 23.972656 -8.835938 23.734375 -7.421875 C 23.523438 -6.222656 23.078125 -5.148438 22.390625 -4.203125 C 21.703125 -3.253906 20.847656 -2.453125 19.828125 -1.796875 C 18.816406 -1.148438 17.664062 -0.65625 16.375 -0.3125 C 15.09375 0.03125 13.710938 0.203125 12.234375 0.203125 C 9.921875 0.203125 7.890625 -0.234375 6.140625 -1.109375 C 4.390625 -1.984375 3.164062 -3.210938 2.46875 -4.796875 L 6.90625 -8.71875 C 7.5625 -7.65625 8.484375 -6.796875 9.671875 -6.140625 C 10.859375 -5.484375 12.035156 -5.15625 13.203125 -5.15625 C 13.347656 -5.15625 13.625 -5.171875 14.03125 -5.203125 C 14.445312 -5.242188 14.878906 -5.332031 15.328125 -5.46875 C 15.773438 -5.601562 16.1875 -5.828125 16.5625 -6.140625 C 16.9375 -6.453125 17.175781 -6.878906 17.28125 -7.421875 C 17.414062 -8.179688 17.179688 -8.738281 16.578125 -9.09375 C 15.984375 -9.457031 15.203125 -9.769531 14.234375 -10.03125 C 13.273438 -10.289062 12.234375 -10.53125 11.109375 -10.75 C 9.992188 -10.976562 8.976562 -11.34375 8.0625 -11.84375 C 7.15625 -12.34375 6.4375 -13.007812 5.90625 -13.84375 C 5.375 -14.6875 5.242188 -15.847656 5.515625 -17.328125 C 5.722656 -18.429688 6.144531 -19.445312 6.78125 -20.375 C 7.414062 -21.300781 8.222656 -22.097656 9.203125 -22.765625 C 10.191406 -23.441406 11.3125 -23.96875 12.5625 -24.34375 C 13.820312 -24.726562 15.171875 -24.921875 16.609375 -24.921875 C 18.566406 -24.921875 20.320312 -24.675781 21.875 -24.1875 C 23.425781 -23.707031 24.75 -22.660156 25.84375 -21.046875 L 21.359375 -17.59375 C 20.941406 -18.070312 20.46875 -18.457031 19.9375 -18.75 C 19.40625 -19.039062 18.875 -19.253906 18.34375 -19.390625 C 17.8125 -19.535156 17.3125 -19.625 16.84375 -19.65625 C 16.382812 -19.6875 16.015625 -19.703125 15.734375 -19.703125 C 15.628906 -19.703125 15.40625 -19.6875 15.0625 -19.65625 C 14.71875 -19.625 14.335938 -19.535156 13.921875 -19.390625 C 13.515625 -19.253906 13.140625 -19.050781 12.796875 -18.78125 C 12.453125 -18.507812 12.226562 -18.128906 12.125 -17.640625 C 12.050781 -17.191406 12.132812 -16.820312 12.375 -16.53125 C 12.625 -16.238281 12.9375 -16.003906 13.3125 -15.828125 C 13.6875 -15.660156 14.097656 -15.535156 14.546875 -15.453125 C 14.992188 -15.367188 15.390625 -15.304688 15.734375 -15.265625 Z M 15.734375 -15.265625 "/></g></g></g><g fill="#ffffff" fill-opacity="1"><g transform="translate(98.142188, 98.476563)"><g><path d="M 23.9375 -0.78125 L 23.84375 0 L 17.03125 0 L 13.875 -7.84375 L 9.640625 -7.84375 L 8.3125 0 L 1.953125 0 L 6.296875 -24.71875 L 19.140625 -24.71875 C 21.203125 -24.71875 22.773438 -24.394531 23.859375 -23.75 C 24.941406 -23.113281 25.707031 -22.359375 26.15625 -21.484375 C 26.601562 -20.609375 26.816406 -19.6875 26.796875 -18.71875 C 26.785156 -17.757812 26.726562 -16.953125 26.625 -16.296875 C 26.519531 -15.785156 26.351562 -15.160156 26.125 -14.421875 C 25.90625 -13.679688 25.5625 -12.929688 25.09375 -12.171875 C 24.632812 -11.421875 24.015625 -10.707031 23.234375 -10.03125 C 22.460938 -9.363281 21.476562 -8.820312 20.28125 -8.40625 Z M 16.203125 -12.796875 C 17.503906 -12.796875 18.460938 -13.09375 19.078125 -13.6875 C 19.703125 -14.289062 20.117188 -15.160156 20.328125 -16.296875 C 20.535156 -17.398438 20.429688 -18.242188 20.015625 -18.828125 C 19.609375 -19.410156 18.75 -19.703125 17.4375 -19.703125 L 11.765625 -19.703125 L 10.53125 -12.796875 Z M 16.203125 -12.796875 "/></g></g></g><g fill="#ffffff" fill-opacity="1"><g transform="translate(50.207811, 107.807163)"><g><path d="M 2.71875 0.09375 C 1.8125 0.09375 1.039062 -0.0625 0.40625 -0.375 L 0.90625 -1.75 C 1.195312 -1.632812 1.492188 -1.539062 1.796875 -1.46875 C 2.097656 -1.40625 2.382812 -1.375 2.65625 -1.375 C 2.988281 -1.375 3.273438 -1.394531 3.515625 -1.4375 C 3.554688 -1.488281 3.578125 -1.5625 3.578125 -1.65625 C 3.578125 -1.75 3.519531 -1.816406 3.40625 -1.859375 C 3.300781 -1.910156 3.066406 -1.984375 2.703125 -2.078125 C 2.148438 -2.203125 1.71875 -2.328125 1.40625 -2.453125 C 1.101562 -2.585938 0.867188 -2.773438 0.703125 -3.015625 C 0.535156 -3.265625 0.453125 -3.597656 0.453125 -4.015625 C 0.453125 -5.191406 1.289062 -5.78125 2.96875 -5.78125 C 3.351562 -5.78125 3.734375 -5.742188 4.109375 -5.671875 C 4.492188 -5.597656 4.820312 -5.5 5.09375 -5.375 L 5.09375 -4.984375 C 5.09375 -4.816406 5.070312 -4.601562 5.03125 -4.34375 C 5 -4.082031 4.96875 -3.898438 4.9375 -3.796875 L 3.484375 -3.796875 L 3.390625 -4.328125 C 3.234375 -4.359375 3.054688 -4.375 2.859375 -4.375 C 2.441406 -4.375 2.234375 -4.242188 2.234375 -3.984375 C 2.234375 -3.828125 2.304688 -3.71875 2.453125 -3.65625 C 2.609375 -3.59375 2.898438 -3.519531 3.328125 -3.4375 C 3.796875 -3.332031 4.171875 -3.222656 4.453125 -3.109375 C 4.734375 -2.992188 4.953125 -2.816406 5.109375 -2.578125 C 5.265625 -2.347656 5.34375 -2.023438 5.34375 -1.609375 C 5.34375 -1.035156 5.132812 -0.609375 4.71875 -0.328125 C 4.3125 -0.046875 3.644531 0.09375 2.71875 0.09375 Z M 2.71875 0.09375 "/></g></g></g><g fill="#ffffff" fill-opacity="1"><g transform="translate(55.979803, 107.807163)"><g><path d="M 0.765625 -5.65625 L 2.4375 -5.65625 L 2.484375 -4.890625 L 2.578125 -4.890625 C 2.796875 -5.171875 3.046875 -5.390625 3.328125 -5.546875 C 3.609375 -5.703125 3.945312 -5.78125 4.34375 -5.78125 C 5.082031 -5.78125 5.609375 -5.523438 5.921875 -5.015625 C 6.234375 -4.515625 6.390625 -3.78125 6.390625 -2.8125 C 6.390625 -1.957031 6.207031 -1.257812 5.84375 -0.71875 C 5.476562 -0.175781 4.914062 0.09375 4.15625 0.09375 C 3.8125 0.09375 3.515625 0.046875 3.265625 -0.046875 C 3.023438 -0.148438 2.789062 -0.316406 2.5625 -0.546875 L 2.5 -0.546875 L 2.546875 0.34375 L 2.546875 2.25 L 0.765625 2.25 Z M 3.671875 -1.46875 C 4.035156 -1.46875 4.285156 -1.578125 4.421875 -1.796875 C 4.554688 -2.023438 4.625 -2.378906 4.625 -2.859375 C 4.625 -3.285156 4.546875 -3.609375 4.390625 -3.828125 C 4.242188 -4.054688 3.976562 -4.171875 3.59375 -4.171875 C 3.34375 -4.171875 3.132812 -4.132812 2.96875 -4.0625 C 2.8125 -3.988281 2.671875 -3.878906 2.546875 -3.734375 L 2.546875 -1.84375 C 2.734375 -1.695312 2.910156 -1.597656 3.078125 -1.546875 C 3.242188 -1.492188 3.441406 -1.46875 3.671875 -1.46875 Z M 3.671875 -1.46875 "/></g></g></g><g fill="#ffffff" fill-opacity="1"><g transform="translate(62.855797, 107.807163)"><g><path d="M 2.046875 0.09375 C 1.472656 0.09375 1.046875 -0.0390625 0.765625 -0.3125 C 0.492188 -0.582031 0.359375 -0.984375 0.359375 -1.515625 C 0.359375 -2.753906 1.285156 -3.375 3.140625 -3.375 C 3.296875 -3.375 3.503906 -3.363281 3.765625 -3.34375 L 3.765625 -3.859375 C 3.765625 -4.066406 3.71875 -4.203125 3.625 -4.265625 C 3.53125 -4.335938 3.363281 -4.375 3.125 -4.375 C 2.914062 -4.375 2.726562 -4.359375 2.5625 -4.328125 L 2.4375 -3.75 L 0.953125 -3.75 C 0.847656 -4.09375 0.796875 -4.457031 0.796875 -4.84375 L 0.796875 -5.140625 C 1.148438 -5.328125 1.519531 -5.472656 1.90625 -5.578125 C 2.300781 -5.679688 2.757812 -5.734375 3.28125 -5.734375 C 4.019531 -5.734375 4.582031 -5.582031 4.96875 -5.28125 C 5.363281 -4.988281 5.5625 -4.550781 5.5625 -3.96875 L 5.5625 0 L 4.0625 0 L 3.953125 -0.796875 L 3.859375 -0.796875 C 3.628906 -0.492188 3.375 -0.269531 3.09375 -0.125 C 2.820312 0.0195312 2.472656 0.09375 2.046875 0.09375 Z M 2.671875 -1.359375 C 2.910156 -1.359375 3.113281 -1.394531 3.28125 -1.46875 C 3.457031 -1.539062 3.628906 -1.644531 3.796875 -1.78125 L 3.796875 -2.203125 C 3.566406 -2.242188 3.289062 -2.265625 2.96875 -2.265625 C 2.726562 -2.265625 2.492188 -2.238281 2.265625 -2.1875 C 2.222656 -2.070312 2.203125 -1.9375 2.203125 -1.78125 C 2.203125 -1.5 2.359375 -1.359375 2.671875 -1.359375 Z M 2.671875 -1.359375 "/></g></g></g><g fill="#ffffff" fill-opacity="1"><g transform="translate(69.119789, 107.807163)"><g/></g></g><g fill="#ffffff" fill-opacity="1"><g transform="translate(72.719785, 107.807163)"><g><path d="M 3.40625 0.125 C 2.363281 0.125 1.609375 -0.125 1.140625 -0.625 C 0.671875 -1.125 0.4375 -1.832031 0.4375 -2.75 C 0.4375 -3.65625 0.691406 -4.378906 1.203125 -4.921875 C 1.722656 -5.460938 2.429688 -5.734375 3.328125 -5.734375 C 4.210938 -5.734375 4.9375 -5.570312 5.5 -5.25 L 5.5 -4.8125 C 5.5 -4.375 5.445312 -3.9375 5.34375 -3.5 L 3.859375 -3.5 L 3.765625 -4.046875 C 3.609375 -4.078125 3.414062 -4.09375 3.1875 -4.09375 C 2.875 -4.09375 2.609375 -4.0625 2.390625 -4 C 2.273438 -3.625 2.21875 -3.226562 2.21875 -2.8125 C 2.21875 -2.375 2.304688 -2.050781 2.484375 -1.84375 C 2.671875 -1.644531 2.992188 -1.546875 3.453125 -1.546875 C 4.023438 -1.546875 4.523438 -1.71875 4.953125 -2.0625 L 5.75 -0.78125 C 5.4375 -0.5 5.09375 -0.273438 4.71875 -0.109375 C 4.34375 0.046875 3.90625 0.125 3.40625 0.125 Z M 3.40625 0.125 "/></g></g></g><g fill="#ffffff" fill-opacity="1"><g transform="translate(78.659781, 107.807163)"><g><path d="M 2.046875 0.09375 C 1.472656 0.09375 1.046875 -0.0390625 0.765625 -0.3125 C 0.492188 -0.582031 0.359375 -0.984375 0.359375 -1.515625 C 0.359375 -2.753906 1.285156 -3.375 3.140625 -3.375 C 3.296875 -3.375 3.503906 -3.363281 3.765625 -3.34375 L 3.765625 -3.859375 C 3.765625 -4.066406 3.71875 -4.203125 3.625 -4.265625 C 3.53125 -4.335938 3.363281 -4.375 3.125 -4.375 C 2.914062 -4.375 2.726562 -4.359375 2.5625 -4.328125 L 2.4375 -3.75 L 0.953125 -3.75 C 0.847656 -4.09375 0.796875 -4.457031 0.796875 -4.84375 L 0.796875 -5.140625 C 1.148438 -5.328125 1.519531 -5.472656 1.90625 -5.578125 C 2.300781 -5.679688 2.757812 -5.734375 3.28125 -5.734375 C 4.019531 -5.734375 4.582031 -5.582031 4.96875 -5.28125 C 5.363281 -4.988281 5.5625 -4.550781 5.5625 -3.96875 L 5.5625 0 L 4.0625 0 L 3.953125 -0.796875 L 3.859375 -0.796875 C 3.628906 -0.492188 3.375 -0.269531 3.09375 -0.125 C 2.820312 0.0195312 2.472656 0.09375 2.046875 0.09375 Z M 2.671875 -1.359375 C 2.910156 -1.359375 3.113281 -1.394531 3.28125 -1.46875 C 3.457031 -1.539062 3.628906 -1.644531 3.796875 -1.78125 L 3.796875 -2.203125 C 3.566406 -2.242188 3.289062 -2.265625 2.96875 -2.265625 C 2.726562 -2.265625 2.492188 -2.238281 2.265625 -2.1875 C 2.222656 -2.070312 2.203125 -1.9375 2.203125 -1.78125 C 2.203125 -1.5 2.359375 -1.359375 2.671875 -1.359375 Z M 2.671875 -1.359375 "/></g></g></g><g fill="#ffffff" fill-opacity="1"><g transform="translate(84.923772, 107.807163)"><g><path d="M 0.765625 -5.65625 L 2.390625 -5.65625 L 2.453125 -4.515625 L 2.578125 -4.515625 C 2.796875 -4.898438 3.039062 -5.195312 3.3125 -5.40625 C 3.59375 -5.613281 3.9375 -5.71875 4.34375 -5.71875 C 4.40625 -5.71875 4.488281 -5.679688 4.59375 -5.609375 C 4.707031 -5.546875 4.789062 -5.484375 4.84375 -5.421875 L 4.671875 -3.875 L 4.15625 -3.875 C 3.46875 -3.875 2.929688 -3.695312 2.546875 -3.34375 L 2.546875 0 L 0.765625 0 Z M 0.765625 -5.65625 "/></g></g></g><g fill="#ffffff" fill-opacity="1"><g transform="translate(90.011769, 107.807163)"><g/></g></g><g fill="#ffffff" fill-opacity="1"><g transform="translate(93.611765, 107.807163)"><g><path d="M 3.40625 0.125 C 2.363281 0.125 1.609375 -0.125 1.140625 -0.625 C 0.671875 -1.125 0.4375 -1.832031 0.4375 -2.75 C 0.4375 -3.65625 0.691406 -4.378906 1.203125 -4.921875 C 1.722656 -5.460938 2.429688 -5.734375 3.328125 -5.734375 C 4.210938 -5.734375 4.9375 -5.570312 5.5 -5.25 L 5.5 -4.8125 C 5.5 -4.375 5.445312 -3.9375 5.34375 -3.5 L 3.859375 -3.5 L 3.765625 -4.046875 C 3.609375 -4.078125 3.414062 -4.09375 3.1875 -4.09375 C 2.875 -4.09375 2.609375 -4.0625 2.390625 -4 C 2.273438 -3.625 2.21875 -3.226562 2.21875 -2.8125 C 2.21875 -2.375 2.304688 -2.050781 2.484375 -1.84375 C 2.671875 -1.644531 2.992188 -1.546875 3.453125 -1.546875 C 4.023438 -1.546875 4.523438 -1.71875 4.953125 -2.0625 L 5.75 -0.78125 C 5.4375 -0.5 5.09375 -0.273438 4.71875 -0.109375 C 4.34375 0.046875 3.90625 0.125 3.40625 0.125 Z M 3.40625 0.125 "/></g></g></g><g fill="#ffffff" fill-opacity="1"><g transform="translate(99.551761, 107.807163)"><g><path d="M 2.1875 0.078125 C 1.988281 0.0234375 1.769531 -0.0664062 1.53125 -0.203125 C 1.300781 -0.335938 1.101562 -0.488281 0.9375 -0.65625 C 0.78125 -0.832031 0.703125 -1 0.703125 -1.15625 L 0.703125 -8.046875 L 2.46875 -8.046875 L 2.46875 -2.125 C 2.46875 -1.90625 2.492188 -1.726562 2.546875 -1.59375 L 2.71875 -1.59375 L 3.359375 -1.9375 L 3.921875 -1.15625 C 3.734375 -0.851562 3.46875 -0.570312 3.125 -0.3125 C 2.78125 -0.0507812 2.46875 0.078125 2.1875 0.078125 Z M 2.1875 0.078125 "/></g></g></g><g fill="#ffffff" fill-opacity="1"><g transform="translate(103.571759, 107.807163)"><g><path d="M 3.4375 0.078125 C 2.476562 0.078125 1.742188 -0.160156 1.234375 -0.640625 C 0.734375 -1.128906 0.484375 -1.835938 0.484375 -2.765625 C 0.484375 -3.753906 0.722656 -4.503906 1.203125 -5.015625 C 1.691406 -5.523438 2.398438 -5.78125 3.328125 -5.78125 C 4.140625 -5.78125 4.765625 -5.566406 5.203125 -5.140625 C 5.648438 -4.710938 5.875 -4.128906 5.875 -3.390625 C 5.875 -3.265625 5.875 -3.171875 5.875 -3.109375 L 4.984375 -2.25 L 2.203125 -2.265625 C 2.203125 -1.984375 2.300781 -1.769531 2.5 -1.625 C 2.695312 -1.488281 3.023438 -1.421875 3.484375 -1.421875 C 3.898438 -1.421875 4.257812 -1.460938 4.5625 -1.546875 C 4.875 -1.640625 5.171875 -1.765625 5.453125 -1.921875 L 5.875 -0.546875 C 5.570312 -0.347656 5.226562 -0.191406 4.84375 -0.078125 C 4.457031 0.0234375 3.988281 0.078125 3.4375 0.078125 Z M 4.1875 -3.4375 C 4.207031 -3.519531 4.21875 -3.585938 4.21875 -3.640625 C 4.21875 -3.847656 4.128906 -4.007812 3.953125 -4.125 C 3.785156 -4.238281 3.5625 -4.296875 3.28125 -4.296875 C 2.90625 -4.296875 2.632812 -4.21875 2.46875 -4.0625 C 2.300781 -3.90625 2.210938 -3.679688 2.203125 -3.390625 Z M 4.1875 -3.4375 "/></g></g></g><g fill="#ffffff" fill-opacity="1"><g transform="translate(109.907752, 107.807163)"><g><path d="M 2.046875 0.09375 C 1.472656 0.09375 1.046875 -0.0390625 0.765625 -0.3125 C 0.492188 -0.582031 0.359375 -0.984375 0.359375 -1.515625 C 0.359375 -2.753906 1.285156 -3.375 3.140625 -3.375 C 3.296875 -3.375 3.503906 -3.363281 3.765625 -3.34375 L 3.765625 -3.859375 C 3.765625 -4.066406 3.71875 -4.203125 3.625 -4.265625 C 3.53125 -4.335938 3.363281 -4.375 3.125 -4.375 C 2.914062 -4.375 2.726562 -4.359375 2.5625 -4.328125 L 2.4375 -3.75 L 0.953125 -3.75 C 0.847656 -4.09375 0.796875 -4.457031 0.796875 -4.84375 L 0.796875 -5.140625 C 1.148438 -5.328125 1.519531 -5.472656 1.90625 -5.578125 C 2.300781 -5.679688 2.757812 -5.734375 3.28125 -5.734375 C 4.019531 -5.734375 4.582031 -5.582031 4.96875 -5.28125 C 5.363281 -4.988281 5.5625 -4.550781 5.5625 -3.96875 L 5.5625 0 L 4.0625 0 L 3.953125 -0.796875 L 3.859375 -0.796875 C 3.628906 -0.492188 3.375 -0.269531 3.09375 -0.125 C 2.820312 0.0195312 2.472656 0.09375 2.046875 0.09375 Z M 2.671875 -1.359375 C 2.910156 -1.359375 3.113281 -1.394531 3.28125 -1.46875 C 3.457031 -1.539062 3.628906 -1.644531 3.796875 -1.78125 L 3.796875 -2.203125 C 3.566406 -2.242188 3.289062 -2.265625 2.96875 -2.265625 C 2.726562 -2.265625 2.492188 -2.238281 2.265625 -2.1875 C 2.222656 -2.070312 2.203125 -1.9375 2.203125 -1.78125 C 2.203125 -1.5 2.359375 -1.359375 2.671875 -1.359375 Z M 2.671875 -1.359375 "/></g></g></g><g fill="#ffffff" fill-opacity="1"><g transform="translate(116.171744, 107.807163)"><g><path d="M 0.90625 -5.65625 L 2.53125 -5.65625 L 2.609375 -4.78125 L 2.703125 -4.78125 C 3.191406 -5.445312 3.832031 -5.78125 4.625 -5.78125 C 5.175781 -5.78125 5.59375 -5.632812 5.875 -5.34375 C 6.15625 -5.0625 6.296875 -4.65625 6.296875 -4.125 L 6.296875 0 L 4.53125 0 L 4.53125 -4 C 4.375 -4.070312 4.164062 -4.109375 3.90625 -4.109375 C 3.375 -4.109375 2.957031 -3.976562 2.65625 -3.71875 L 2.65625 0 L 0.90625 0 Z M 0.90625 -5.65625 "/></g></g></g></svg>