<svg xmlns="http://www.w3.org/2000/svg" xmlns:xlink="http://www.w3.org/1999/xlink" width="200" zoomAndPan="magnify" viewBox="0 0 150 149.999998" height="200" preserveAspectRatio="xMidYMid meet" version="1.0"><defs><clipPath id="92cbe22e72"><path d="M 13 80 L 92 80 L 92 109.894531 L 13 109.894531 Z M 13 80 " clip-rule="nonzero"/></clipPath><clipPath id="fc88f0304f"><path d="M 112 40.144531 L 137.398438 40.144531 L 137.398438 70 L 112 70 Z M 112 40.144531 " clip-rule="nonzero"/></clipPath></defs><g clip-path="url(#92cbe22e72)"><path fill="#ffffff" d="M 65.753906 80.699219 L 23.78125 80.699219 C 17.949219 80.699219 15.011719 84.425781 13.773438 86.621094 C 13.730469 86.703125 13.144531 90.929688 13.058594 92.628906 C 12.890625 95.816406 15.628906 98.425781 18.828125 98.449219 L 30.5625 98.449219 C 30.738281 99.253906 30.980469 100.039062 31.289062 100.800781 C 31.597656 101.5625 31.96875 102.296875 32.402344 102.996094 C 32.832031 103.695312 33.324219 104.355469 33.867188 104.972656 C 34.414062 105.589844 35.007812 106.15625 35.648438 106.675781 C 36.289062 107.191406 36.972656 107.652344 37.691406 108.050781 C 38.410156 108.453125 39.160156 108.792969 39.9375 109.066406 C 40.714844 109.339844 41.507812 109.546875 42.320312 109.6875 C 43.132812 109.828125 43.953125 109.898438 44.777344 109.898438 C 45.601562 109.898438 46.421875 109.832031 47.234375 109.695312 C 48.046875 109.554688 48.839844 109.351562 49.621094 109.078125 C 50.398438 108.804688 51.148438 108.46875 51.867188 108.070312 C 52.589844 107.667969 53.269531 107.210938 53.914062 106.695312 C 54.554688 106.179688 55.152344 105.613281 55.699219 105 C 56.242188 104.382812 56.734375 103.726562 57.167969 103.027344 C 57.605469 102.328125 57.976562 101.59375 58.285156 100.832031 C 58.597656 100.070312 58.839844 99.285156 59.019531 98.484375 L 91.617188 98.515625 C 88.359375 87.410156 78.3125 80.699219 65.753906 80.699219 Z M 65.753906 80.699219 " fill-opacity="1" fill-rule="nonzero"/></g><path fill="#ffffff" d="M 94.507812 41.726562 L 88.792969 41.726562 C 79.3125 41.726562 67.410156 53.890625 61.742188 57.496094 C 56.242188 59.089844 41.996094 58.222656 29.980469 62.140625 C 21.730469 64.800781 17.457031 72 15.253906 79.289062 C 16.511719 78.441406 17.867188 77.800781 19.320312 77.367188 C 20.777344 76.933594 22.261719 76.730469 23.78125 76.753906 L 65.628906 76.753906 C 83.226562 76.195312 94.386719 62.535156 94.507812 41.726562 Z M 94.507812 41.726562 " fill-opacity="1" fill-rule="nonzero"/><path fill="#ffffff" d="M 100.324219 98.789062 C 99.761719 96.601562 98.941406 94.519531 97.851562 92.542969 C 96.765625 90.566406 95.445312 88.757812 93.898438 87.113281 C 92.351562 85.46875 90.621094 84.046875 88.710938 82.839844 C 86.800781 81.632812 84.769531 80.683594 82.617188 79.992188 L 77.457031 78.320312 L 82.59375 76.566406 C 84.734375 75.84375 86.75 74.867188 88.640625 73.632812 C 90.53125 72.398438 92.238281 70.945312 93.761719 69.28125 C 95.285156 67.613281 96.574219 65.785156 97.632812 63.789062 C 98.691406 61.796875 99.484375 59.703125 100.007812 57.507812 L 102.382812 47.710938 L 104.910156 57.472656 C 105.472656 59.65625 106.292969 61.738281 107.382812 63.714844 C 108.46875 65.691406 109.789062 67.503906 111.335938 69.144531 C 112.882812 70.789062 114.613281 72.214844 116.523438 73.417969 C 118.429688 74.625 120.460938 75.574219 122.613281 76.265625 L 127.773438 77.941406 L 122.632812 79.691406 C 120.496094 80.417969 118.480469 81.394531 116.589844 82.628906 C 114.695312 83.863281 112.988281 85.316406 111.46875 86.980469 C 109.945312 88.648438 108.65625 90.476562 107.597656 92.472656 C 106.539062 94.464844 105.746094 96.558594 105.222656 98.75 L 102.847656 108.550781 Z M 100.324219 98.789062 " fill-opacity="1" fill-rule="nonzero"/><path fill="#ffffff" d="M 125.921875 103.007812 C 125.742188 102.300781 125.472656 101.628906 125.121094 100.988281 C 124.769531 100.347656 124.34375 99.761719 123.84375 99.230469 C 123.34375 98.695312 122.78125 98.234375 122.164062 97.847656 C 121.546875 97.457031 120.890625 97.148438 120.191406 96.925781 L 118.523438 96.382812 L 120.183594 95.8125 C 120.878906 95.582031 121.53125 95.265625 122.144531 94.863281 C 122.753906 94.464844 123.308594 93.996094 123.800781 93.457031 C 124.292969 92.917969 124.710938 92.328125 125.054688 91.679688 C 125.398438 91.035156 125.652344 90.359375 125.824219 89.648438 L 126.59375 86.476562 L 127.40625 89.632812 C 127.589844 90.339844 127.855469 91.015625 128.207031 91.65625 C 128.558594 92.296875 128.984375 92.882812 129.488281 93.414062 C 129.988281 93.945312 130.546875 94.40625 131.167969 94.796875 C 131.785156 95.1875 132.441406 95.492188 133.140625 95.71875 L 134.808594 96.257812 L 133.148438 96.828125 C 132.453125 97.0625 131.800781 97.378906 131.191406 97.777344 C 130.578125 98.175781 130.023438 98.644531 129.53125 99.183594 C 129.039062 99.722656 128.621094 100.316406 128.28125 100.960938 C 127.9375 101.605469 127.683594 102.285156 127.511719 102.992188 L 126.742188 106.164062 Z M 125.921875 103.007812 " fill-opacity="1" fill-rule="nonzero"/><g clip-path="url(#fc88f0304f)"><path fill="#ffffff" d="M 124.039062 65.039062 C 123.765625 63.972656 123.367188 62.960938 122.835938 61.996094 C 122.304688 61.03125 121.664062 60.148438 120.910156 59.347656 C 120.15625 58.546875 119.3125 57.855469 118.382812 57.265625 C 117.449219 56.679688 116.460938 56.21875 115.414062 55.878906 L 112.898438 55.058594 L 115.402344 54.207031 C 116.445312 53.855469 117.425781 53.375 118.347656 52.773438 C 119.269531 52.171875 120.101562 51.46875 120.84375 50.65625 C 121.585938 49.84375 122.214844 48.953125 122.726562 47.980469 C 123.242188 47.007812 123.628906 45.988281 123.886719 44.921875 L 125.042969 40.148438 L 126.273438 44.90625 C 126.542969 45.972656 126.945312 46.984375 127.476562 47.949219 C 128.007812 48.910156 128.648438 49.792969 129.402344 50.59375 C 130.15625 51.394531 131 52.089844 131.929688 52.675781 C 132.859375 53.265625 133.851562 53.726562 134.898438 54.066406 L 137.398438 54.878906 L 134.894531 55.730469 C 133.851562 56.085938 132.871094 56.5625 131.949219 57.164062 C 131.027344 57.765625 130.195312 58.472656 129.453125 59.285156 C 128.710938 60.097656 128.082031 60.988281 127.566406 61.960938 C 127.050781 62.929688 126.667969 63.953125 126.410156 65.019531 L 125.253906 69.796875 Z M 124.039062 65.039062 " fill-opacity="1" fill-rule="nonzero"/></g></svg>